HIERARCHY
ROOT joint_Root
{
	OFFSET 0.0 0.0 0.0
	CHANNELS 6 Xposition Yposition Zposition Zrotation Xrotation Yrotation 
	JOINT Hips
	{
		OFFSET 4.5925 91.4895 -427.239
		CHANNELS 6 Xposition Yposition Zposition Zrotation Xrotation Yrotation 
		JOINT Spine
		{
			OFFSET 15.7357 0.0 0.0
			CHANNELS 6 Xposition Yposition Zposition Zrotation Xrotation Yrotation 
			JOINT Chest
			{
				OFFSET 8.98455 -0.406207 0.0
				CHANNELS 6 Xposition Yposition Zposition Zrotation Xrotation Yrotation 
				JOINT Neck
				{
					OFFSET 16.3773 0.0 0.0
					CHANNELS 6 Xposition Yposition Zposition Zrotation Xrotation Yrotation 
					JOINT Head
					{
						OFFSET 6.45672 0.0 0.0
						CHANNELS 6 Xposition Yposition Zposition Zrotation Xrotation Yrotation 
						End Site
						{
							OFFSET 0.0 0.0 0.0
						}
					}
				}
				JOINT Shoulder_L
				{
					OFFSET 12.9942 -0.242716 4.98039
					CHANNELS 6 Xposition Yposition Zposition Zrotation Xrotation Yrotation 
					JOINT UpperArm_L
					{
						OFFSET 5.34809 0.0 0.0
						CHANNELS 6 Xposition Yposition Zposition Zrotation Xrotation Yrotation 
						JOINT LowerArm_L
						{
							OFFSET 24.3286 1.87007e-05 0.0
							CHANNELS 6 Xposition Yposition Zposition Zrotation Xrotation Yrotation 
							JOINT Hand_L
							{
								OFFSET 22.2916 0.0 0.0
								CHANNELS 6 Xposition Yposition Zposition Zrotation Xrotation Yrotation 
								End Site
								{
									OFFSET 0.0 0.0 0.0
								}
							}
						}
					}
				}
				JOINT Shoulder_R
				{
					OFFSET 12.9945 -0.242716 -4.98039
					CHANNELS 6 Xposition Yposition Zposition Zrotation Xrotation Yrotation 
					JOINT UpperArm_R
					{
						OFFSET -5.34813 0.0 0.0
						CHANNELS 6 Xposition Yposition Zposition Zrotation Xrotation Yrotation 
						JOINT LowerArm_R
						{
							OFFSET -24.3289 0.000322201 0.0
							CHANNELS 6 Xposition Yposition Zposition Zrotation Xrotation Yrotation 
							JOINT Hand_R
							{
								OFFSET -22.2915 -0.000108084 0.0
								CHANNELS 6 Xposition Yposition Zposition Zrotation Xrotation Yrotation 
								End Site
								{
									OFFSET 0.0 0.0 0.0
								}
							}
						}
					}
				}
			}
		}
		JOINT UpperLeg_L
		{
			OFFSET -2.19248 -6.46944 0.0
			CHANNELS 6 Xposition Yposition Zposition Zrotation Xrotation Yrotation 
			JOINT LowerLeg_L
			{
				OFFSET 39.0811 0.0 -1.23785e-05
				CHANNELS 6 Xposition Yposition Zposition Zrotation Xrotation Yrotation 
				JOINT Foot_L
				{
					OFFSET 40.9854 0.0 -1.26872e-05
					CHANNELS 6 Xposition Yposition Zposition Zrotation Xrotation Yrotation 
					JOINT Toes_L
					{
						OFFSET 11.7543 0.0 0.0
						CHANNELS 6 Xposition Yposition Zposition Zrotation Xrotation Yrotation 
						End Site
						{
							OFFSET 0.0 0.0 0.0
						}
					}
				}
			}
		}
		JOINT UpperLeg_R
		{
			OFFSET -2.19251 6.46944 0.0
			CHANNELS 6 Xposition Yposition Zposition Zrotation Xrotation Yrotation 
			JOINT LowerLeg_R
			{
				OFFSET -39.0811 -0.00228153 -0.0401928
				CHANNELS 6 Xposition Yposition Zposition Zrotation Xrotation Yrotation 
				JOINT Foot_R
				{
					OFFSET -40.9854 0.0 0.0
					CHANNELS 6 Xposition Yposition Zposition Zrotation Xrotation Yrotation 
					JOINT Toes_R
					{
						OFFSET -11.7543 0.0 0.0
						CHANNELS 6 Xposition Yposition Zposition Zrotation Xrotation Yrotation 
						End Site
						{
							OFFSET 0.0 0.0 0.0
						}
					}
				}
			}
		}
	}
}
MOTION
Frames:	4
Frame Time:	0.0333333
0.000000 0.000000 0.000000 0.000000 0.000000 -0.000000 -8.528410 90.097600 0.628388 87.852900 -3.461570 11.199700 15.735700 0.000005 -0.000001 78.173400 83.870200 -76.543700 8.984550 -0.406207 -0.000000 4.275280 -2.558210 3.351730 16.377300 -0.000001 -0.000001 32.376300 -5.315680 6.072560 6.456720 -0.000001 -0.000000 13.965900 -6.374530 6.198350 12.994200 -0.242716 4.980390 -85.844600 -10.749900 -68.718600 5.348090 -0.000007 -0.000001 -69.234700 -42.259100 -90.672200 24.328600 0.000019 0.000005 23.387500 10.322900 -67.493500 22.291600 -0.000001 0.000005 31.852700 5.315520 -0.367421 12.994500 -0.242716 -4.980390 92.222100 -7.147790 -72.680400 -5.348130 -0.000001 -0.000004 -53.417100 -47.020900 -82.910900 -24.328900 0.000322 -0.000009 6.727720 2.375120 -70.647500 -22.291500 -0.000108 -0.000004 31.845200 5.498420 -6.469790 -2.192480 -6.469440 -0.000000 -166.211000 -13.282900 1.876020 39.081100 -0.000007 -0.000012 -0.319634 0.516841 31.734900 40.985400 -0.000006 -0.000013 -5.909110 5.443900 -70.239200 11.754300 -0.000000 0.000003 -0.000130 -0.001284 -16.626600 -2.192510 6.469440 -0.000001 178.854000 24.138900 -175.496000 -39.081100 -0.002282 -0.040193 -0.195653 0.341384 30.233400 -40.985400 0.000008 0.000006 8.158020 12.260800 -74.204500 -11.754300 -0.000006 -0.000006 -0.001341 -0.020140 -17.392100
0.000000 0.000000 0.000000 0.000000 0.000000 -0.000000 -8.600080 90.057600 0.638099 87.749500 -3.556940 11.292200 15.735700 0.000005 -0.000001 78.396100 83.834300 -76.717100 8.984550 -0.406207 -0.000000 4.355950 -2.526240 3.450810 16.377300 -0.000001 -0.000001 32.223700 -5.026850 6.196130 6.456720 -0.000001 -0.000000 13.868100 -6.081770 6.362330 12.994200 -0.242716 4.980390 -85.862700 -10.618000 -68.566100 5.348090 -0.000007 -0.000001 -69.216500 -42.455800 -90.854100 24.328600 0.000019 0.000005 23.339900 10.249200 -67.590900 22.291600 -0.000001 0.000005 31.984600 5.316150 -0.385550 12.994500 -0.242716 -4.980390 92.210500 -7.065300 -72.577400 -5.348130 -0.000001 -0.000004 -53.832800 -47.205100 -83.284700 -24.328900 0.000322 -0.000009 6.740160 2.357180 -70.816000 -22.291500 -0.000108 -0.000004 31.914500 5.498760 -6.483730 -2.192480 -6.469440 -0.000000 -166.026000 -13.245600 1.910580 39.081100 -0.000007 -0.000012 -0.320991 0.515058 31.932400 40.985400 -0.000006 -0.000013 -5.971700 5.417590 -70.352100 11.754300 -0.000000 0.000003 -0.000136 -0.001335 -16.628400 -2.192510 6.469440 -0.000001 178.975000 24.104300 -175.446000 -39.081100 -0.002282 -0.040193 -0.193385 0.335917 30.350100 -40.985400 0.000008 0.000006 8.236060 12.272900 -74.287300 -11.754300 -0.000006 -0.000006 -0.001395 -0.020872 -17.421800
0.000000 0.000000 0.000000 0.000000 0.000000 -0.000000 -8.680520 90.023200 0.639843 87.654900 -3.618630 11.417500 15.735700 0.000005 -0.000001 78.685400 83.793700 -76.969500 8.984550 -0.406207 -0.000000 4.448220 -2.480830 3.524840 16.377300 -0.000001 -0.000001 32.150500 -4.748380 6.307370 6.456720 -0.000001 -0.000000 13.709600 -5.788610 6.571970 12.994200 -0.242716 4.980390 -85.859100 -10.519500 -68.369300 5.348090 -0.000007 -0.000001 -69.242000 -42.604900 -91.076900 24.328600 0.000019 0.000005 23.358300 10.200600 -67.703200 22.291600 -0.000001 0.000005 31.975300 5.317440 -0.422700 12.994500 -0.242716 -4.980390 92.200500 -6.966010 -72.420100 -5.348130 -0.000001 -0.000004 -54.267900 -47.247700 -83.651500 -24.328900 0.000322 -0.000009 6.679760 2.309980 -71.013100 -22.291500 -0.000108 -0.000004 32.049300 5.498420 -6.470230 -2.192480 -6.469440 -0.000000 -165.826000 -13.233500 1.976810 39.081100 -0.000007 -0.000012 -0.322354 0.513939 32.097500 40.985400 -0.000006 -0.000013 -6.025190 5.447580 -70.426700 11.754300 -0.000000 0.000003 -0.000136 -0.001341 -16.628600 -2.192510 6.469440 -0.000001 179.090000 24.055700 -175.337000 -39.081100 -0.002282 -0.040193 -0.195241 0.338046 30.426800 -40.985400 0.000008 0.000006 8.292020 12.205100 -74.350200 -11.754300 -0.000006 -0.000006 -0.001443 -0.021509 -17.447700
0.000000 0.000000 0.000000 0.000000 0.000000 -0.000000 -8.767270 89.978200 0.643399 87.563700 -3.632310 11.503100 15.735700 0.000005 -0.000001 78.873000 83.772200 -77.120500 8.984550 -0.406207 -0.000000 4.498580 -2.449540 3.597570 16.377300 -0.000001 -0.000001 32.128200 -4.505950 6.371740 6.456720 -0.000001 -0.000000 13.646800 -5.499720 6.716230 12.994200 -0.242716 4.980390 -85.866700 -10.466400 -68.306800 5.348090 -0.000007 -0.000001 -69.123100 -42.912000 -91.057100 24.328600 0.000019 0.000005 23.197700 10.025500 -67.891900 22.291600 -0.000001 0.000005 31.932800 5.320030 -0.496675 12.994500 -0.242716 -4.980390 92.182500 -6.880030 -72.352100 -5.348130 -0.000001 -0.000004 -54.694700 -47.275500 -83.981500 -24.328900 0.000322 -0.000009 6.568110 2.250810 -71.170000 -22.291500 -0.000108 -0.000004 32.074800 5.497580 -6.436560 -2.192480 -6.469440 -0.000000 -165.646000 -13.155800 1.966000 39.081100 -0.000007 -0.000012 -0.328239 0.519126 32.305500 40.985400 -0.000006 -0.000013 -6.094660 5.452620 -70.521300 11.754300 -0.000000 0.000003 -0.000133 -0.001308 -16.627400 -2.192510 6.469440 -0.000001 179.208000 24.053500 -175.293000 -39.081100 -0.002282 -0.040193 -0.195110 0.336051 30.558600 -40.985400 0.000008 0.000006 8.368470 12.169700 -74.450500 -11.754300 -0.000006 -0.000006 -0.001476 -0.021948 -17.465600
